# xmcd
#
# Track frame offsets:
# 150
# 12383
# 25761
# 41932
# 63120
# 77285
# 87588
#
# Disc length: 1326 seconds
#
# Revision: 0
# Processed by: cddbd v1.5.1PL0 Copyright (c) Steve Scherf et al.
# Submitted via: Audion 3.0.1 (http://www.panic.com/audion/)
#
DISCID=4b052c07
DTITLE=Gary Mule Deer - DuckandCoverBand
DYEAR=1900
DGENRE=
TTITLE0=MamasDontLetYourBabies
TTITLE1=CarlPerkins
TTITLE2=MeandMyUncle
TTITLE3=TributetoJohnny
TTITLE4=OldGlory
TTITLE5=MuleSkinnerBlues
TTITLE6=BigRiver
EXTD=
EXTT0=
EXTT1=
EXTT2=
EXTT3=
EXTT4=
EXTT5=
EXTT6=
PLAYORDER=
